<?xml version="1.0" encoding="UTF-8" standalone="no"?>
<!DOCTYPE svg PUBLIC "-//W3C//DTD SVG 1.1//EN"
 "http://www.w3.org/Graphics/SVG/1.1/DTD/svg11.dtd">
<!-- Generated by graphviz version 2.38.0 (20140413.2041)
 -->
<!-- Title: %3 Pages: 1 -->
<svg width="416pt" height="136pt"
 viewBox="0.00 0.00 416.00 136.00" xmlns="http://www.w3.org/2000/svg" xmlns:xlink="http://www.w3.org/1999/xlink">
<g id="graph0" class="graph" transform="scale(1 1) rotate(0) translate(4 132)">
<title>%3</title>
<polygon fill="#c0ffee" stroke="none" points="-4,4 -4,-132 412,-132 412,4 -4,4"/>
<text text-anchor="middle" x="204" y="-9.6" font-family="simsun" font-size="18.00" fill="#000099">展示用的圖片</text>
<!-- A -->
<g id="node1" class="node"><title>A</title>
<polygon fill="#ffc0ee" stroke="black" points="62,-77 0,-77 0,-41 62,-41 62,-77"/>
<text text-anchor="middle" x="31" y="-55.3" font-family="simsun" font-size="14.00">Node A</text>
</g>
<!-- B -->
<g id="node2" class="node"><title>B</title>
<polygon fill="#ffc0ee" stroke="black" points="221,-116 159,-116 159,-80 221,-80 221,-116"/>
<text text-anchor="middle" x="190" y="-94.3" font-family="simsun" font-size="14.00">Node B</text>
</g>
<!-- A&#45;&gt;B -->
<g id="edge1" class="edge"><title>A&#45;&gt;B</title>
<path fill="none" stroke="#ff0000" stroke-dasharray="1,5" d="M62.2712,-66.5196C86.923,-72.6433 121.935,-81.3406 148.914,-88.0422"/>
<polygon fill="#ff0000" stroke="#ff0000" points="158.822,-90.5035 148.032,-92.4599 153.969,-89.2981 149.117,-88.0926 149.117,-88.0926 149.117,-88.0926 153.969,-89.2981 150.202,-83.7253 158.822,-90.5035 158.822,-90.5035"/>
<text text-anchor="middle" x="110.5" y="-91.8" font-family="simsun" font-size="24.00" fill="#000000">edge1</text>
</g>
<!-- C -->
<g id="node3" class="node"><title>C</title>
<polygon fill="#ffc0ee" stroke="black" points="408,-64 354,-64 354,-28 408,-28 408,-64"/>
<text text-anchor="middle" x="381" y="-42.3" font-family="simsun" font-size="14.00">中文</text>
</g>
<!-- A&#45;&gt;C -->
<g id="edge2" class="edge"><title>A&#45;&gt;C</title>
<path fill="none" stroke="#ff0000" stroke-dasharray="1,5" d="M62.202,-54.7259C87.8851,-51.3184 125.777,-46.8257 159,-45 223.945,-41.4312 299.787,-43.0274 343.615,-44.513"/>
<polygon fill="#ff0000" stroke="#ff0000" points="353.779,-44.8753 343.625,-49.0162 348.783,-44.6972 343.786,-44.519 343.786,-44.519 343.786,-44.519 348.783,-44.6972 343.946,-40.0219 353.779,-44.8753 353.779,-44.8753"/>
<text text-anchor="middle" x="190" y="-51.8" font-family="simsun" font-size="24.00" fill="#000000">edge2</text>
</g>
<!-- B&#45;&gt;C -->
<g id="edge3" class="edge"><title>B&#45;&gt;C</title>
<path fill="none" stroke="#ff0000" stroke-dasharray="1,5" d="M219.443,-79.9423C225.703,-76.5603 232.429,-73.3535 239,-71 273.394,-58.6809 314.763,-52.2671 343.766,-49.0382"/>
<polygon fill="#ff0000" stroke="#ff0000" points="353.856,-47.9877 344.376,-53.4992 348.883,-48.5055 343.91,-49.0234 343.91,-49.0234 343.91,-49.0234 348.883,-48.5055 343.444,-44.5476 353.856,-47.9877 353.856,-47.9877"/>
<text text-anchor="middle" x="287.5" y="-77.8" font-family="simsun" font-size="24.00" fill="#000000">某種關係</text>
</g>
<!-- D -->
<g id="node4" class="node"><title>D</title>
<polygon fill="#ffc0ee" stroke="black" points="408,-128 354,-128 354,-92 408,-92 408,-128"/>
<text text-anchor="middle" x="381" y="-106.3" font-family="simsun" font-size="14.00">D</text>
</g>
<!-- B&#45;&gt;D -->
<g id="edge4" class="edge"><title>B&#45;&gt;D</title>
<path fill="none" stroke="#ff0000" stroke-dasharray="1,5" d="M221.366,-99.928C254.653,-102.041 308.041,-105.431 343.561,-107.686"/>
<polygon fill="#ff0000" stroke="#ff0000" points="353.968,-108.347 343.703,-112.204 348.978,-108.03 343.988,-107.713 343.988,-107.713 343.988,-107.713 348.978,-108.03 344.274,-103.223 353.968,-108.347 353.968,-108.347"/>
</g>
</g>
</svg>
