<?xml version="1.0" encoding="UTF-8" standalone="no"?>
<!DOCTYPE svg PUBLIC "-//W3C//DTD SVG 1.1//EN"
 "http://www.w3.org/Graphics/SVG/1.1/DTD/svg11.dtd">
<!-- Generated by graphviz version 2.38.0 (20140413.2041)
 -->
<!-- Title: %3 Pages: 1 -->
<svg width="156pt" height="218pt"
 viewBox="0.00 0.00 156.00 218.00" xmlns="http://www.w3.org/2000/svg" xmlns:xlink="http://www.w3.org/1999/xlink">
<g id="graph0" class="graph" transform="scale(1 1) rotate(0) translate(4 214)">
<title>%3</title>
<polygon fill="white" stroke="none" points="-4,4 -4,-214 152,-214 152,4 -4,4"/>
<!-- A -->
<g id="node1" class="node"><title>A</title>
<ellipse fill="none" stroke="black" cx="90" cy="-192" rx="39.7935" ry="18"/>
<text text-anchor="middle" x="90" y="-188.3" font-family="Times New Roman,serif" font-size="14.00">Node A</text>
</g>
<!-- B -->
<g id="node2" class="node"><title>B</title>
<ellipse fill="none" stroke="black" cx="46" cy="-105" rx="38.9931" ry="18"/>
<text text-anchor="middle" x="46" y="-101.3" font-family="Times New Roman,serif" font-size="14.00">Node B</text>
</g>
<!-- A&#45;&gt;B -->
<g id="edge1" class="edge"><title>A&#45;&gt;B</title>
<path fill="none" stroke="black" d="M81.307,-174.207C75.0396,-162.099 66.4641,-145.533 59.334,-131.759"/>
<polygon fill="black" stroke="black" points="62.3803,-130.03 54.6749,-122.758 56.1638,-133.248 62.3803,-130.03"/>
<text text-anchor="middle" x="88" y="-144.8" font-family="Times New Roman,serif" font-size="14.00">edge1</text>
</g>
<!-- C -->
<g id="node3" class="node"><title>C</title>
<ellipse fill="none" stroke="black" cx="110" cy="-18" rx="27" ry="18"/>
<text text-anchor="middle" x="110" y="-14.3" font-family="Times New Roman,serif" font-size="14.00">中文</text>
</g>
<!-- A&#45;&gt;C -->
<g id="edge2" class="edge"><title>A&#45;&gt;C</title>
<path fill="none" stroke="black" d="M99.8366,-174.461C102.706,-168.802 105.477,-162.304 107,-156 115.976,-118.844 114.866,-74.3622 112.796,-46.3863"/>
<polygon fill="black" stroke="black" points="116.263,-45.8472 111.941,-36.1737 109.287,-46.4307 116.263,-45.8472"/>
<text text-anchor="middle" x="131" y="-101.3" font-family="Times New Roman,serif" font-size="14.00">edge2</text>
</g>
<!-- B&#45;&gt;C -->
<g id="edge3" class="edge"><title>B&#45;&gt;C</title>
<path fill="none" stroke="black" d="M48.2493,-87.0196C50.2689,-76.7188 54.0394,-63.7293 61,-54 66.159,-46.7889 73.2778,-40.5143 80.4917,-35.3472"/>
<polygon fill="black" stroke="black" points="82.4757,-38.2313 88.892,-29.8004 78.6185,-32.3899 82.4757,-38.2313"/>
<text text-anchor="middle" x="84" y="-57.8" font-family="Times New Roman,serif" font-size="14.00">某種關係</text>
</g>
<!-- D -->
<g id="node4" class="node"><title>D</title>
<ellipse fill="none" stroke="black" cx="27" cy="-18" rx="27" ry="18"/>
<text text-anchor="middle" x="27" y="-14.3" font-family="Times New Roman,serif" font-size="14.00">D</text>
</g>
<!-- B&#45;&gt;D -->
<g id="edge4" class="edge"><title>B&#45;&gt;D</title>
<path fill="none" stroke="black" d="M42.1551,-86.799C39.5369,-75.086 36.0177,-59.3423 33.0296,-45.9744"/>
<polygon fill="black" stroke="black" points="36.3716,-44.881 30.7744,-35.8854 29.5402,-46.4081 36.3716,-44.881"/>
</g>
</g>
</svg>
