<?xml version="1.0" encoding="UTF-8" standalone="no"?>
<!DOCTYPE svg PUBLIC "-//W3C//DTD SVG 1.1//EN"
 "http://www.w3.org/Graphics/SVG/1.1/DTD/svg11.dtd">
<!-- Generated by graphviz version 2.38.0 (20140413.2041)
 -->
<!-- Title: %3 Pages: 1 -->
<svg width="107pt" height="188pt"
 viewBox="0.00 0.00 107.00 188.00" xmlns="http://www.w3.org/2000/svg" xmlns:xlink="http://www.w3.org/1999/xlink">
<g id="graph0" class="graph" transform="scale(1 1) rotate(0) translate(4 184)">
<title>%3</title>
<polygon fill="white" stroke="none" points="-4,4 -4,-184 103,-184 103,4 -4,4"/>
<!-- A -->
<g id="node1" class="node"><title>A</title>
<ellipse fill="none" stroke="black" cx="54" cy="-162" rx="27" ry="18"/>
<text text-anchor="middle" x="54" y="-158.3" font-family="Times New Roman,serif" font-size="14.00">A</text>
</g>
<!-- A&#45;&#45;A -->
<g id="edge1" class="edge"><title>A&#45;&#45;A</title>
<path fill="none" stroke="black" d="M73.895,-174.432C86.688,-177.675 99,-173.531 99,-162 99,-150.469 86.688,-146.325 73.895,-149.568"/>
</g>
<!-- B -->
<g id="node2" class="node"><title>B</title>
<ellipse fill="none" stroke="black" cx="27" cy="-90" rx="27" ry="18"/>
<text text-anchor="middle" x="27" y="-86.3" font-family="Times New Roman,serif" font-size="14.00">B</text>
</g>
<!-- A&#45;&#45;B -->
<g id="edge2" class="edge"><title>A&#45;&#45;B</title>
<path fill="none" stroke="black" d="M47.6014,-144.411C43.3597,-133.414 37.8106,-119.027 33.5403,-107.956"/>
</g>
<!-- C -->
<g id="node3" class="node"><title>C</title>
<ellipse fill="none" stroke="black" cx="54" cy="-18" rx="27" ry="18"/>
<text text-anchor="middle" x="54" y="-14.3" font-family="Times New Roman,serif" font-size="14.00">C</text>
</g>
<!-- A&#45;&#45;C -->
<g id="edge3" class="edge"><title>A&#45;&#45;C</title>
<path fill="none" stroke="black" d="M57.6538,-143.908C59.6758,-133.569 61.9808,-120.09 63,-108 64.3441,-92.0566 64.3441,-87.9434 63,-72 61.9808,-59.9098 59.6758,-46.4315 57.6538,-36.0925"/>
</g>
<!-- B&#45;&#45;C -->
<g id="edge4" class="edge"><title>B&#45;&#45;C</title>
<path fill="none" stroke="black" d="M33.3986,-72.411C37.6403,-61.4141 43.1894,-47.0274 47.4597,-35.9562"/>
</g>
</g>
</svg>
