<?xml version="1.0" encoding="UTF-8" standalone="no"?>
<!DOCTYPE svg PUBLIC "-//W3C//DTD SVG 1.1//EN"
 "http://www.w3.org/Graphics/SVG/1.1/DTD/svg11.dtd">
<!-- Generated by graphviz version 2.38.0 (20140413.2041)
 -->
<!-- Title: %3 Pages: 1 -->
<svg width="335pt" height="131pt"
 viewBox="0.00 0.00 335.00 131.00" xmlns="http://www.w3.org/2000/svg" xmlns:xlink="http://www.w3.org/1999/xlink">
<g id="graph0" class="graph" transform="scale(1 1) rotate(0) translate(4 127)">
<title>%3</title>
<polygon fill="#c0ffee" stroke="none" points="-4,4 -4,-127 331,-127 331,4 -4,4"/>
<text text-anchor="middle" x="163.5" y="-9.6" font-family="Times New Roman,serif" font-size="18.00" fill="#000099">展示用的圖片</text>
<!-- A -->
<g id="node1" class="node"><title>A</title>
<polygon fill="#ffc0ee" stroke="black" points="61,-81 3.55271e-015,-81 3.55271e-015,-45 61,-45 61,-81"/>
<text text-anchor="middle" x="30.5" y="-59.3" font-family="Times New Roman,serif" font-size="14.00">Node A</text>
</g>
<!-- B -->
<g id="node2" class="node"><title>B</title>
<polygon fill="#ffc0ee" stroke="black" points="191,-111 131,-111 131,-75 191,-75 191,-111"/>
<text text-anchor="middle" x="161" y="-89.3" font-family="Times New Roman,serif" font-size="14.00">Node B</text>
</g>
<!-- A&#45;&gt;B -->
<g id="edge1" class="edge"><title>A&#45;&gt;B</title>
<path fill="none" stroke="black" d="M61.3035,-69.958C79.0261,-74.0956 101.713,-79.3922 120.866,-83.8637"/>
<polygon fill="black" stroke="black" points="120.267,-87.3179 130.801,-86.1832 121.859,-80.5012 120.267,-87.3179"/>
<text text-anchor="middle" x="96" y="-84.8" font-family="Times New Roman,serif" font-size="14.00">edge1</text>
</g>
<!-- C -->
<g id="node3" class="node"><title>C</title>
<polygon fill="#ffc0ee" stroke="black" points="327,-64 273,-64 273,-28 327,-28 327,-64"/>
<text text-anchor="middle" x="300" y="-42.3" font-family="Times New Roman,serif" font-size="14.00">中文</text>
</g>
<!-- A&#45;&gt;C -->
<g id="edge2" class="edge"><title>A&#45;&gt;C</title>
<path fill="none" stroke="black" d="M61.0374,-58.7288C80.7963,-56.0465 107.403,-52.7704 131,-51 176.161,-47.6117 228.312,-46.494 262.379,-46.1392"/>
<polygon fill="black" stroke="black" points="262.803,-49.6357 272.772,-46.0488 262.742,-42.636 262.803,-49.6357"/>
<text text-anchor="middle" x="161" y="-54.8" font-family="Times New Roman,serif" font-size="14.00">edge2</text>
</g>
<!-- B&#45;&gt;C -->
<g id="edge3" class="edge"><title>B&#45;&gt;C</title>
<path fill="none" stroke="black" d="M191.054,-83.0325C212.128,-75.8029 240.757,-65.9813 263.236,-58.2694"/>
<polygon fill="black" stroke="black" points="264.444,-61.5552 272.767,-54.9995 262.173,-54.934 264.444,-61.5552"/>
<text text-anchor="middle" x="232" y="-79.8" font-family="Times New Roman,serif" font-size="14.00">某種關係</text>
</g>
<!-- D -->
<g id="node4" class="node"><title>D</title>
<polygon fill="#ffc0ee" stroke="black" points="327,-123 273,-123 273,-87 327,-87 327,-123"/>
<text text-anchor="middle" x="300" y="-101.3" font-family="Times New Roman,serif" font-size="14.00">D</text>
</g>
<!-- B&#45;&gt;D -->
<g id="edge4" class="edge"><title>B&#45;&gt;D</title>
<path fill="none" stroke="black" d="M191.054,-95.5449C211.939,-97.3742 240.244,-99.8535 262.63,-101.814"/>
<polygon fill="black" stroke="black" points="262.5,-105.316 272.767,-102.702 263.111,-98.3429 262.5,-105.316"/>
</g>
</g>
</svg>
